<svg width="40" height="40" viewBox="0 0 40 40" fill="none" xmlns="http://www.w3.org/2000/svg">
<rect width="40" height="40" rx="6" fill="#FFC700"/>
<path d="M29.9467 11.4928C29.6869 11.175 29.2976 11 28.8506 11C28.6076 11 28.3502 11.0511 28.0856 11.1523L10.0765 18.0269C9.1208 18.3916 8.99208 18.9389 9.00036 19.2327C9.00864 19.5265 9.16819 20.0657 10.1431 20.3759C10.1489 20.3777 10.1548 20.3795 10.1606 20.3811L13.8962 21.4501L15.9164 27.227C16.1918 28.0146 16.8101 28.5038 17.5301 28.5038C17.9841 28.5038 18.4307 28.3136 18.8215 27.9539L21.1321 25.8264L24.4835 28.5249C24.4838 28.5252 24.4843 28.5254 24.4846 28.5257L24.5164 28.5514C24.5193 28.5536 24.5224 28.5561 24.5253 28.5583C24.8979 28.8473 25.3045 28.9998 25.7017 29H25.7018C26.4779 29 27.0958 28.4256 27.2758 27.5367L30.2266 12.9665C30.3451 12.3816 30.2457 11.8583 29.9467 11.4928ZM15.1458 21.2471L22.3529 17.5652L17.8653 22.3336C17.7918 22.4117 17.7397 22.5073 17.714 22.6114L16.8487 26.1164L15.1458 21.2471ZM17.977 27.0368C17.9471 27.0642 17.9171 27.0887 17.8871 27.1113L18.6899 23.8597L20.1502 25.0357L17.977 27.0368ZM29.0048 12.7189L26.054 27.2893C26.0256 27.4288 25.9349 27.7532 25.7017 27.7532C25.5864 27.7532 25.4416 27.6904 25.2934 27.5763L21.4959 24.5186C21.4954 24.5181 21.4947 24.5176 21.4941 24.5173L19.2345 22.6977L25.7241 15.802C25.9318 15.5812 25.9507 15.2431 25.7687 15.0006C25.5866 14.7581 25.2566 14.6818 24.9867 14.8198L14.313 20.2727L10.5266 19.1894L28.5302 12.3169C28.6823 12.2588 28.7884 12.2466 28.8506 12.2466C28.8888 12.2466 28.9566 12.2511 28.9818 12.2821C29.0149 12.3226 29.0571 12.4604 29.0048 12.7189Z" fill="#141414"/>
</svg>
