<svg width="40" height="40" viewBox="0 0 40 40" fill="none" xmlns="http://www.w3.org/2000/svg">
<rect width="40" height="40" rx="6" fill="#FFC700"/>
<path d="M23.5938 19.2361H22.5159C22.5159 18.0439 22.0917 17.6196 20.8994 17.6196V16.542C22.6845 16.542 23.5938 17.4513 23.5938 19.2361Z" fill="black"/>
<path d="M25.749 19.2353H24.6714C24.6714 16.8376 23.2974 15.4634 20.8994 15.4634V14.3857C23.8901 14.3857 25.749 16.2448 25.749 19.2353Z" fill="black"/>
<path d="M27.9044 19.2355H26.8268C26.8268 15.6926 24.4423 13.3083 20.8994 13.3083V12.2305C25.0889 12.2305 27.9044 15.046 27.9044 19.2355Z" fill="black"/>
<path d="M15.511 33.9999V30.282L14.3592 30.1473C11.6043 29.8104 9.44905 27.5474 9.23337 24.7657C9.11221 23.1221 9.04492 21.4383 9.04492 19.7746C9.04492 18.1109 9.11221 16.4338 9.23337 14.7835C9.44905 12.0018 11.6447 9.7319 14.4535 9.38835C18.7307 8.87055 23.0546 8.87055 27.3319 9.38835C30.1472 9.7319 32.3431 12.0018 32.5586 14.7835C32.6866 16.4269 32.7472 18.1109 32.7472 19.7746C32.7472 21.4383 32.6799 23.1221 32.5586 24.7657C32.3498 27.5405 30.1943 29.8037 27.4463 30.1473C25.522 30.3853 23.586 30.5179 21.647 30.5447L15.511 33.9999ZM20.8993 10.0754C18.7899 10.0758 16.6822 10.2041 14.5881 10.4593C12.2847 10.7422 10.4862 12.5946 10.3112 14.8712C10.1831 16.4877 10.1225 18.1378 10.1225 19.7746C10.1225 21.4113 10.1831 23.0683 10.3112 24.6848C10.4872 26.9566 12.2338 28.793 14.494 29.0831C15.0282 29.1504 15.5649 29.2088 16.1036 29.2581L16.5954 29.3053V32.1612L21.3642 29.4738H21.4988C23.4445 29.4521 25.3874 29.3216 27.3183 29.0831C29.5613 28.807 31.3124 26.9547 31.4876 24.6915C31.6155 23.075 31.6763 21.418 31.6763 19.7813C31.6763 18.1445 31.6155 16.4944 31.4876 14.8712C31.3124 12.5946 29.5141 10.7422 27.2038 10.4593C25.1119 10.2047 23.0066 10.0764 20.8993 10.0754Z" fill="black"/>
<path d="M23.0142 26.7799H22.5157C17.4641 26.7799 13.3555 22.6713 13.3555 17.6196V17.1212C13.3529 16.2616 13.6949 15.4368 14.3052 14.8312L14.7498 14.3866C15.4434 13.6928 16.6558 13.6928 17.3496 14.3866L18.744 15.7809C19.0901 16.1247 19.2841 16.5929 19.2827 17.0807C19.2811 17.5681 19.0875 18.0352 18.744 18.3807L18.6159 18.5088C18.3521 18.7734 18.2043 19.132 18.2051 19.5055C18.2064 19.8789 18.354 20.2366 18.6159 20.5024L19.6262 21.5128C20.1517 22.0382 21.1013 22.0382 21.6268 21.5128L21.7546 21.3849C22.4484 20.6911 23.6608 20.6911 24.3547 21.3849L25.7488 22.7857C26.4667 23.5038 26.4667 24.6677 25.7488 25.3858L25.3044 25.8303C24.6988 26.4405 23.874 26.7825 23.0142 26.7799ZM16.0496 14.9255C15.8478 14.9251 15.6538 15.005 15.5109 15.1477L15.0663 15.5923C14.659 15.9966 14.4309 16.5473 14.4331 17.1212V17.6196C14.4369 22.0821 18.0535 25.6985 22.5157 25.7023H23.0142C23.5859 25.7029 24.1338 25.4748 24.5364 25.0692L24.981 24.6247C25.1242 24.4818 25.2046 24.288 25.2046 24.0857C25.2046 23.8835 25.1242 23.6897 24.981 23.5468L23.5936 22.1527C23.2916 21.8652 22.8177 21.8652 22.5157 22.1527L22.3879 22.2806C21.4148 23.2528 19.8382 23.2528 18.8651 22.2806L17.8548 21.2702C17.3889 20.801 17.1274 20.1668 17.1274 19.5055C17.1265 18.8462 17.3881 18.2136 17.8548 17.7477L17.9829 17.6196C18.1248 17.4762 18.2047 17.2826 18.2051 17.0807C18.2055 16.8789 18.1255 16.6849 17.9829 16.542L16.5885 15.1477C16.4455 15.005 16.2517 14.9251 16.0496 14.9255Z" fill="black"/>
</svg>
